<?xml version="1.0" encoding="UTF-8"?>
<svg version="1.1" xmlns="http://www.w3.org/2000/svg" width="300" height="100">
<path d="M0 0 C4.29351823 2.66011456 7.56207069 5.53179771 9.6875 10.1875 C10.90770322 15.73387827 10.87152009 20.16342732 8.375 25.3125 C7.385 25.3125 6.395 25.3125 5.375 25.3125 C5.375 25.9725 5.375 26.6325 5.375 27.3125 C-6.505 28.3025 -6.505 28.3025 -18.625 29.3125 C-17.965 30.3025 -17.305 31.2925 -16.625 32.3125 C-13.99802936 32.53387393 -11.61606036 32.59412025 -9 32.5 C-8.29359375 32.48646484 -7.5871875 32.47292969 -6.859375 32.45898438 C-5.11425872 32.4236104 -3.36953392 32.36980221 -1.625 32.3125 C-1.625 31.9825 -1.625 31.6525 -1.625 31.3125 C1.345 31.3125 4.315 31.3125 7.375 31.3125 C7.85620301 38.41024436 7.85620301 38.41024436 5.875 42.125 C-0.45438693 47.66321357 -7.0937147 47.77408572 -15.19140625 47.6171875 C-19.76340703 47.21148095 -23.39550025 46.06263783 -27.625 44.3125 C-27.625 43.6525 -27.625 42.9925 -27.625 42.3125 C-28.40875 42.085625 -29.1925 41.85875 -30 41.625 C-32.625 40.3125 -32.625 40.3125 -33.9375 37.6875 C-34.164375 36.90375 -34.39125 36.12 -34.625 35.3125 C-35.615 35.3125 -36.605 35.3125 -37.625 35.3125 C-39.43527352 29.99482152 -40.36692611 24.94240987 -39.625 19.3125 C-38.635 17.8275 -38.635 17.8275 -37.625 16.3125 C-36.91331054 14.70981946 -36.2053302 13.10548937 -35.5 11.5 C-32.47319736 5.36579938 -28.37857619 2.16690732 -22.33203125 -0.8203125 C-15.70187925 -2.9442573 -6.38073951 -3.01346589 0 0 Z M-17.375 12.6875 C-19.84193046 14.98936401 -19.84193046 14.98936401 -19.625 17.3125 C-13.19 16.8175 -13.19 16.8175 -6.625 16.3125 C-6.955 14.9925 -7.285 13.6725 -7.625 12.3125 C-8.615 12.3125 -9.605 12.3125 -10.625 12.3125 C-10.625 11.6525 -10.625 10.9925 -10.625 10.3125 C-14.72605307 9.87675342 -14.72605307 9.87675342 -17.375 12.6875 Z " fill="#D32F45" transform="translate(255.625,15.6875)"/>
<path d="M0 0 C4.62193458 4.01051274 6.76929436 7.95835413 8 14 C8.20625 14.969375 8.4125 15.93875 8.625 16.9375 C8.74875 17.618125 8.8725 18.29875 9 19 C8.34 19 7.68 19 7 19 C7.020625 19.78375 7.04125 20.5675 7.0625 21.375 C7 24 7 24 6 26 C3.234375 26.37890625 3.234375 26.37890625 -0.25 26.5625 C-4.28063455 26.78591753 -8.04891773 27.20848598 -12 28 C-13.60303627 28.06371368 -15.20837672 28.08644214 -16.8125 28.0625 C-17.60269531 28.05347656 -18.39289062 28.04445313 -19.20703125 28.03515625 C-19.79871094 28.02355469 -20.39039062 28.01195313 -21 28 C-21.33 28.66 -21.66 29.32 -22 30 C-21.01 30 -20.02 30 -19 30 C-19 30.66 -19 31.32 -19 32 C-12.227137 32.20018314 -6.43762203 32.14587401 0 30 C1.32 30 2.64 30 4 30 C5.08215681 33.34484831 5.08274916 34.78223907 3.8125 38.125 C1.55986606 41.6981435 -0.38710981 43.49500563 -4.4453125 44.765625 C-14.31367352 46.54941037 -23.29092038 46.58895467 -31.87890625 40.71484375 C-37.19791384 36.55069376 -39.20193413 32.25365318 -40.8125 25.6875 C-41.22641685 17.54713535 -39.35019911 10.26201249 -34 4 C-25.2240224 -4.00829765 -10.54605379 -6.94077493 0 0 Z M-22 12 C-22.96044102 14.07690578 -22.96044102 14.07690578 -23 16 C-18.48382401 16.07654536 -14.40914783 16.10228696 -10 15 C-10.33 13.35 -10.66 11.7 -11 10 C-15.58166871 8.51769542 -18.0208455 9.37737544 -22 12 Z " fill="#D2283F" transform="translate(75,17)"/>
<path d="M0 0 C4.48086127 2.74318522 7.69923807 6.34771422 9.375 11.375 C9.94877112 16.67008775 10.30300897 20.92498598 7.375 25.5 C3.5147627 27.91264831 0.89285639 28.14527849 -3.625 28.375 C-3.625 28.705 -3.625 29.035 -3.625 29.375 C-8.905 29.375 -14.185 29.375 -19.625 29.375 C-19.625 30.035 -19.625 30.695 -19.625 31.375 C-11.07642156 33.86185918 -4.10876362 34.14520853 4.375 31.375 C5.035 31.375 5.695 31.375 6.375 31.375 C6.86121272 38.54663759 6.86121272 38.54663759 4.6875 42.25 C-0.25747976 46.79403545 -6.10806163 47.28242985 -12.625 47.375 C-21.73568208 46.69169884 -27.94084638 43.89897303 -34.5 37.625 C-38.33111901 31.76564152 -39.27201803 25.60237716 -38.22265625 18.703125 C-36.27447901 11.11414701 -32.46828173 4.45067684 -25.625 0.375 C-17.97770744 -2.7617961 -7.65912732 -3.50799725 0 0 Z M-18.625 12.375 C-20.07791273 14.83755685 -20.07791273 14.83755685 -20.625 17.375 C-19.20844207 17.4022415 -17.79172955 17.42150467 -16.375 17.4375 C-15.58609375 17.44910156 -14.7971875 17.46070313 -13.984375 17.47265625 C-11.71808998 17.37885306 -9.7961105 17.00741063 -7.625 16.375 C-7.955 14.725 -8.285 13.075 -8.625 11.375 C-12.23289603 11.375 -15.16242862 11.39644722 -18.625 12.375 Z " fill="#D33047" transform="translate(157.625,15.625)"/>
<path d="M0 0 C0 0.66 0 1.32 0 2 C0.66 2.33 1.32 2.66 2 3 C2 3.66 2 4.32 2 5 C1.67 5.33 1.34 5.66 1 6 C1 6.99 1 7.98 1 9 C1 9.33 1 9.66 1 10 C5.29 10.33 9.58 10.66 14 11 C15 16 15 16 15 19 C14.34 19.99 13.68 20.98 13 22 C13.66 22.33 14.32 22.66 15 23 C12.31907309 25.68092691 10.60832637 25.38670257 6.875 25.625 C5.77929688 25.69976563 4.68359375 25.77453125 3.5546875 25.8515625 C2.71164063 25.90054687 1.86859375 25.94953125 1 26 C0.9039942 28.99755541 0.9039942 28.99755541 1.5625 31.875 C1.99891783 34.99227023 1.63870948 36.96612997 1 40 C1.36856864 42.23167185 1.36856864 42.23167185 2 44 C6.08443115 45.53166168 9.79455657 44.63081652 14 44 C14.05447047 45.41623216 14.09300508 46.83308191 14.125 48.25 C14.14820312 49.03890625 14.17140625 49.8278125 14.1953125 50.640625 C13.97198192 53.33845836 13.57511491 54.79295277 12 57 C6.45516788 60.06963466 0.14194031 59.49506824 -6 59 C-10.81946243 57.39351252 -13.12803246 55.14839755 -16 51 C-17.14315747 48.71368506 -17.12112732 47.45652594 -17.11352539 44.91748047 C-17.11344986 44.07675995 -17.11337433 43.23603943 -17.11329651 42.36984253 C-17.10813522 41.46146637 -17.10297394 40.55309021 -17.09765625 39.6171875 C-17.0962413 38.68778351 -17.09482635 37.75837952 -17.09336853 36.80081177 C-17.08776053 33.82550876 -17.07520668 30.85028036 -17.0625 27.875 C-17.05748603 25.86067817 -17.05292295 23.84635516 -17.04882812 21.83203125 C-17.0377885 16.88799198 -17.02051849 11.94400865 -17 7 C-16.34 7 -15.68 7 -15 7 C-14.67 6.01 -14.34 5.02 -14 4 C-9.11048764 0.57734135 -6.10575128 -0.49842868 0 0 Z " fill="#D12138" transform="translate(17,3)"/>
<path d="M0 0 C3.28161108 2.35602847 5.14905084 4.29674467 5.94921875 8.328125 C6.00722656 9.20984375 6.06523437 10.0915625 6.125 11 C6.22361328 12.33804687 6.22361328 12.33804687 6.32421875 13.703125 C6.38029297 14.71632813 6.38029297 14.71632813 6.4375 15.75 C5.58285156 15.6778125 4.72820312 15.605625 3.84765625 15.53125 C2.19056641 15.39203125 2.19056641 15.39203125 0.5 15.25 C-1.15322266 15.11078125 -1.15322266 15.11078125 -2.83984375 14.96875 C-5.75456398 14.73456875 -8.21448205 14.92205432 -11.125 15.25 C-11.95128906 15.3428125 -12.77757812 15.435625 -13.62890625 15.53125 C-14.26699219 15.6034375 -14.90507812 15.675625 -15.5625 15.75 C-16.46487778 20.98379111 -17.12277574 24.86220086 -14.5625 29.75 C-10.59833049 31.87187012 -7.19169531 31.96473122 -2.75 31.875 C-1.58855469 31.85695312 -0.42710937 31.83890625 0.76953125 31.8203125 C1.64996094 31.79710937 2.53039062 31.77390625 3.4375 31.75 C3.4375 31.09 3.4375 30.43 3.4375 29.75 C4.0975 29.75 4.7575 29.75 5.4375 29.75 C6.35185331 34.41320188 6.91940551 37.57588619 4.4375 41.75 C-1.03975398 46.93897745 -6.07462734 47.1700863 -13.39453125 47.08984375 C-20.98476171 46.27560201 -27.15174323 42.07547918 -32.296875 36.59375 C-34.20912733 33.80799969 -34.36391603 31.05973287 -34.5625 27.75 C-35.2225 27.42 -35.8825 27.09 -36.5625 26.75 C-35.06672123 16.86026271 -33.00349773 8.88988958 -24.6875 2.5625 C-17.04048479 -1.87276882 -8.44172391 -2.96200839 0 0 Z " fill="#D12038" transform="translate(207.5625,15.25)"/>
<path d="M0 0 C5.61 0 11.22 0 17 0 C17.64761557 7.00421143 18.08396871 13.91137969 17.9921875 20.9453125 C17.98431213 21.61496033 17.97643677 22.28460815 17.96832275 22.97454834 C17.93197203 25.73102143 17.88896959 28.48710446 17.82861328 31.24316406 C17.78643002 33.28976315 17.7629278 35.3358996 17.7421875 37.3828125 C17.7201123 38.58309082 17.69803711 39.78336914 17.67529297 41.02001953 C17.76164727 43.96645005 17.76164727 43.96645005 19.28564453 45.90185547 C22.06263247 47.68067799 24.80262829 47.1809833 28 47 C29.19708724 51.9080577 29.05852862 55.3459353 27 60 C22.65461514 62.37961552 17.87016285 62.59461291 13 62 C7.11801191 60.20549516 4.49504612 57.83138729 1 53 C-0.16390794 50.67218412 -0.16081634 49.22434162 -0.22119141 46.62963867 C-0.24436432 45.7249736 -0.26753723 44.82030853 -0.29141235 43.88822937 C-0.3112619 42.90804337 -0.33111145 41.92785736 -0.3515625 40.91796875 C-0.37471527 39.91163895 -0.39786804 38.90530914 -0.42172241 37.8684845 C-0.46940337 35.73586127 -0.51463232 33.60318204 -0.55761719 31.47045898 C-0.62451344 28.21120583 -0.70235793 24.9523416 -0.78125 21.69335938 C-0.82618549 19.62241015 -0.87047732 17.55144684 -0.9140625 15.48046875 C-0.93796051 14.50635544 -0.96185852 13.53224213 -0.98648071 12.52861023 C-1.0033493 11.61448868 -1.0202179 10.70036713 -1.03759766 9.75854492 C-1.05456696 8.95849533 -1.07153625 8.15844574 -1.08901978 7.33415222 C-1 5 -1 5 0 0 Z " fill="#D1253C" transform="translate(89,0)"/>
<path d="M0 0 C2.27024968 -0.08097324 4.54132075 -0.13917704 6.8125 -0.1875 C8.07707031 -0.22230469 9.34164063 -0.25710937 10.64453125 -0.29296875 C14 0 14 0 15.88671875 1.26171875 C17.84135454 4.31369393 18.12387825 7.45415279 18.18945312 11.01831055 C18.20617065 11.79559006 18.22288818 12.57286957 18.2401123 13.373703 C18.25368774 14.2029982 18.26726318 15.0322934 18.28125 15.88671875 C18.30886414 17.17314018 18.30886414 17.17314018 18.33703613 18.48554993 C18.41565465 22.15080424 18.48370898 25.81623481 18.55224609 29.48168945 C18.60381804 32.1584627 18.66110052 34.83507063 18.71875 37.51171875 C18.73232544 38.34708664 18.74590088 39.18245453 18.7598877 40.0431366 C18.48076341 43.83072186 18.48076341 43.83072186 20 47 C21.34747084 47.23075082 22.70377565 47.41153063 24.0625 47.5625 C25.361875 47.706875 26.66125 47.85125 28 48 C28.08121924 49.60332791 28.13929134 51.20784026 28.1875 52.8125 C28.23970703 54.15248047 28.23970703 54.15248047 28.29296875 55.51953125 C28 58 28 58 26.59375 59.78125 C22.68520405 62.77013808 17.72137872 62.35168557 13 62 C6.4125 60.61875 6.4125 60.61875 4 57 C3.01 56.67 2.02 56.34 1 56 C0.83126522 54.56274129 0.66509263 53.12518162 0.5 51.6875 C0.4071875 50.88699219 0.314375 50.08648437 0.21875 49.26171875 C-0.26959332 44.21259767 0 39.07089795 0 34 C-0.185625 33.34 -0.37125 32.68 -0.5625 32 C-1 30 -1 30 0 27 C0.09599519 24.46742101 0.13937035 21.96907608 0.125 19.4375 C0.12886719 18.75236328 0.13273437 18.06722656 0.13671875 17.36132812 C0.18722618 13.55437812 0.18722618 13.55437812 -1 10 C-0.34 10 0.32 10 1 10 C0.67 6.7 0.34 3.4 0 0 Z " fill="#D3283F" transform="translate(272,0)"/>
<path d="M0 0 C0.91007812 0.10183594 1.82015625 0.20367187 2.7578125 0.30859375 C3.45648438 0.39238281 4.15515625 0.47617188 4.875 0.5625 C5.205 2.5425 5.535 4.5225 5.875 6.5625 C6.205 6.2325 6.535 5.9025 6.875 5.5625 C9.20797433 5.52157063 11.54205225 5.52008277 13.875 5.5625 C14.37 7.0475 14.37 7.0475 14.875 8.5625 C17.79134129 8.8127157 17.79134129 8.8127157 20.875 8.5625 C21.535 7.5725 22.195 6.5825 22.875 5.5625 C25.8125 4.75 25.8125 4.75 28.875 4.5625 C29.865 5.2225 30.855 5.8825 31.875 6.5625 C35.63198557 6.93819856 36.62866476 6.7267235 39.875 4.5625 C43.0625 4.4375 43.0625 4.4375 45.875 4.5625 C45.38 2.5825 45.38 2.5825 44.875 0.5625 C47.35 0.0675 47.35 0.0675 49.875 -0.4375 C52.06711273 3.04409081 51.66491287 4.64055498 50.875 8.5625 C50.83229327 10.79125754 50.83433782 13.02120422 50.875 15.25 C50.98538251 21.34173497 50.98538251 21.34173497 49.875 23.5625 C45.42 22.5725 45.42 22.5725 40.875 21.5625 C40.875 22.2225 40.875 22.8825 40.875 23.5625 C39.885 23.5625 38.895 23.5625 37.875 23.5625 C37.875 22.9025 37.875 22.2425 37.875 21.5625 C37.36453125 21.88992187 36.8540625 22.21734375 36.328125 22.5546875 C33.00727963 23.91898384 30.20127432 23.7537273 26.625 23.6875 C25.36171875 23.66945313 24.0984375 23.65140625 22.796875 23.6328125 C21.83265625 23.60960938 20.8684375 23.58640625 19.875 23.5625 C19.38 20.5925 19.38 20.5925 18.875 17.5625 C18.58625 18.18125 18.2975 18.8 18 19.4375 C16.875 21.5625 16.875 21.5625 14.875 23.5625 C11.6171875 23.7578125 11.6171875 23.7578125 7.75 23.6875 C5.82800781 23.66042969 5.82800781 23.66042969 3.8671875 23.6328125 C2.87976563 23.60960938 1.89234375 23.58640625 0.875 23.5625 C0.875 21.9125 0.875 20.2625 0.875 18.5625 C0.215 18.2325 -0.445 17.9025 -1.125 17.5625 C-1.125 18.2225 -1.125 18.8825 -1.125 19.5625 C-1.125 20.5525 -1.125 21.5425 -1.125 22.5625 C-4.39449252 24.19724626 -7.89656225 23.57668775 -11.49609375 23.5 C-14.23611337 23.43643186 -14.23611337 23.43643186 -17.125 24.5625 C-19.01205133 22.67544867 -18.51967718 19.46816156 -18.6875 16.9375 C-18.77128906 15.72835937 -18.85507813 14.51921875 -18.94140625 13.2734375 C-19.1184071 9.69576064 -19.15722282 6.14383677 -19.125 2.5625 C-17.475 2.5625 -15.825 2.5625 -14.125 2.5625 C-14.125 7.22916667 -14.125 11.89583333 -14.125 16.5625 C-12.805 17.2225 -11.485 17.8825 -10.125 18.5625 C-7.41917212 14.72924383 -6.79886382 12.23711851 -7.125 7.5625 C-5.45888095 7.519779 -3.79117115 7.52186168 -2.125 7.5625 C-1.795 7.8925 -1.465 8.2225 -1.125 8.5625 C-1.125 8.2325 -1.125 7.9025 -1.125 7.5625 C-3.435 6.9025 -5.745 6.2425 -8.125 5.5625 C-7.75 3.125 -7.75 3.125 -7.125 0.5625 C-4.50184968 -0.74907516 -2.89466564 -0.33399988 0 0 Z M-2.125 2.5625 C-2.125 3.2225 -2.125 3.8825 -2.125 4.5625 C-1.135 4.2325 -0.145 3.9025 0.875 3.5625 C-0.115 3.2325 -1.105 2.9025 -2.125 2.5625 Z M32.875 8.5625 C32.875 8.8925 32.875 9.2225 32.875 9.5625 C34.525 9.5625 36.175 9.5625 37.875 9.5625 C37.875 9.2325 37.875 8.9025 37.875 8.5625 C36.225 8.5625 34.575 8.5625 32.875 8.5625 Z M4.875 11.5625 C4.19698966 14.46323181 4.19698966 14.46323181 3.875 17.5625 C5.77255144 19.91223818 5.77255144 19.91223818 9 19.6875 C9.94875 19.64625 10.8975 19.605 11.875 19.5625 C13.30444945 17.20811267 13.96161261 16.08217567 13.5 13.3125 C13.29375 12.735 13.0875 12.1575 12.875 11.5625 C10.235 11.5625 7.595 11.5625 4.875 11.5625 Z M22.875 11.5625 C22.875 11.8925 22.875 12.2225 22.875 12.5625 C25.845 12.5625 28.815 12.5625 31.875 12.5625 C31.875 12.2325 31.875 11.9025 31.875 11.5625 C28.905 11.5625 25.935 11.5625 22.875 11.5625 Z M34.875 11.5625 C35.205 12.5525 35.535 13.5425 35.875 14.5625 C36.535 14.5625 37.195 14.5625 37.875 14.5625 C37.875 13.5725 37.875 12.5825 37.875 11.5625 C36.885 11.5625 35.895 11.5625 34.875 11.5625 Z M40.875 11.5625 C40.875 14.2025 40.875 16.8425 40.875 19.5625 C41.865 20.0575 41.865 20.0575 42.875 20.5625 C43.865 20.2325 44.855 19.9025 45.875 19.5625 C45.875 16.9225 45.875 14.2825 45.875 11.5625 C44.225 11.5625 42.575 11.5625 40.875 11.5625 Z M-2.125 12.5625 C-2.125 13.2225 -2.125 13.8825 -2.125 14.5625 C-1.135 14.2325 -0.145 13.9025 0.875 13.5625 C-0.115 13.2325 -1.105 12.9025 -2.125 12.5625 Z M16.875 13.5625 C17.535 14.2225 18.195 14.8825 18.875 15.5625 C18.875 14.9025 18.875 14.2425 18.875 13.5625 C18.215 13.5625 17.555 13.5625 16.875 13.5625 Z M22.875 16.5625 C23.205 17.5525 23.535 18.5425 23.875 19.5625 C26.78960777 20.90447751 26.78960777 20.90447751 29.1875 19.5625 C32.47757815 18.33828487 34.50400718 18.77854818 37.875 19.5625 C37.875 18.5725 37.875 17.5825 37.875 16.5625 C32.925 16.5625 27.975 16.5625 22.875 16.5625 Z " fill="#888888" transform="translate(229.125,69.4375)"/>
<path d="M0 0 C1.13622803 0.00640503 1.13622803 0.00640503 2.29541016 0.01293945 C8.15747742 0.19190008 12.46336498 1.18013387 16.6875 5.5 C20.1741056 9.54896134 20.72303675 14.28498172 20.6875 19.5 C20.23331444 21.98439501 19.55100619 24.11265934 18.6875 26.5 C13.72430053 27.78215986 8.77825598 27.72048837 3.6875 27.75 C2.35332031 27.7809375 2.35332031 27.7809375 0.9921875 27.8125 C-3.95557585 27.84203889 -7.26845356 27.70153677 -11.3125 24.5 C-10.3225 23.84 -9.3325 23.18 -8.3125 22.5 C-9.3025 21.84 -10.2925 21.18 -11.3125 20.5 C-5.3725 20.17 0.5675 19.84 6.6875 19.5 C6.6875 18.84 6.6875 18.18 6.6875 17.5 C6.0275 17.5 5.3675 17.5 4.6875 17.5 C4.44 16.55125 4.1925 15.6025 3.9375 14.625 C3.03316709 11.45023986 3.03316709 11.45023986 0.8125 10.375 C-0.239375 9.941875 -0.239375 9.941875 -1.3125 9.5 C-2.68336915 8.20529025 -4.02590837 6.87849103 -5.3125 5.5 C-5.3125 6.16 -5.3125 6.82 -5.3125 7.5 C-7.9525 7.83 -10.5925 8.16 -13.3125 8.5 C-13.625 6.1875 -13.625 6.1875 -13.3125 3.5 C-9.21356449 0.1455977 -5.0993038 -0.04293094 0 0 Z " fill="#D32037" transform="translate(245.3125,14.5)"/>
<path d="M0 0 C1.67542976 0.28604898 3.34385343 0.61781233 5 1 C6.13629026 4.40887079 5.7088016 5.55935891 5 9 C4.95729327 11.22875754 4.95933782 13.45870422 5 15.6875 C5.11038251 21.77923497 5.11038251 21.77923497 4 24 C1.03 23.34 -1.94 22.68 -5 22 C-5 22.66 -5 23.32 -5 24 C-5.99 24 -6.98 24 -8 24 C-8 23.34 -8 22.68 -8 22 C-8.51046875 22.32742187 -9.0209375 22.65484375 -9.546875 22.9921875 C-12.86772037 24.35648384 -15.67372568 24.1912273 -19.25 24.125 C-20.51328125 24.10695313 -21.7765625 24.08890625 -23.078125 24.0703125 C-24.04234375 24.04710938 -25.0065625 24.02390625 -26 24 C-26.12375 23.030625 -26.2475 22.06125 -26.375 21.0625 C-26.684375 19.5465625 -26.684375 19.5465625 -27 18 C-27.66 17.67 -28.32 17.34 -29 17 C-28.67 16.34 -28.34 15.68 -28 15 C-28.33 14.67 -28.66 14.34 -29 14 C-29.68268138 12.67479497 -30.3507041 11.34187818 -31 10 C-29.865625 9.71125 -28.73125 9.4225 -27.5625 9.125 C-26.386875 8.75375 -25.21125 8.3825 -24 8 C-23.67 7.34 -23.34 6.68 -23 6 C-20.125 5.25 -20.125 5.25 -17 5 C-16.01 5.66 -15.02 6.32 -14 7 C-10.24301443 7.37569856 -9.24633524 7.1642235 -6 5 C-2.8125 4.875 -2.8125 4.875 0 5 C-0.185625 4.360625 -0.37125 3.72125 -0.5625 3.0625 C-0.706875 2.381875 -0.85125 1.70125 -1 1 C-0.67 0.67 -0.34 0.34 0 0 Z M-13 9 C-13 9.33 -13 9.66 -13 10 C-11.35 10 -9.7 10 -8 10 C-8 9.67 -8 9.34 -8 9 C-9.65 9 -11.3 9 -13 9 Z M-23 12 C-23 12.33 -23 12.66 -23 13 C-20.03 13 -17.06 13 -14 13 C-14 12.67 -14 12.34 -14 12 C-16.97 12 -19.94 12 -23 12 Z M-11 12 C-10.67 12.99 -10.34 13.98 -10 15 C-9.34 15 -8.68 15 -8 15 C-8 14.01 -8 13.02 -8 12 C-8.99 12 -9.98 12 -11 12 Z M-5 12 C-5 14.64 -5 17.28 -5 20 C-4.01 20.495 -4.01 20.495 -3 21 C-2.01 20.67 -1.02 20.34 0 20 C0 17.36 0 14.72 0 12 C-1.65 12 -3.3 12 -5 12 Z M-23 17 C-22.67 17.99 -22.34 18.98 -22 20 C-19.08539223 21.34197751 -19.08539223 21.34197751 -16.6875 20 C-13.39742185 18.77578487 -11.37099282 19.21604818 -8 20 C-8 19.01 -8 18.02 -8 17 C-12.95 17 -17.9 17 -23 17 Z " fill="#B1B1B1" transform="translate(275,69)"/>
<path d="M0 0 C3.28161108 2.35602847 5.14905084 4.29674467 5.94921875 8.328125 C6.00722656 9.20984375 6.06523437 10.0915625 6.125 11 C6.22361328 12.33804687 6.22361328 12.33804687 6.32421875 13.703125 C6.38029297 14.71632813 6.38029297 14.71632813 6.4375 15.75 C5.58285156 15.6778125 4.72820312 15.605625 3.84765625 15.53125 C2.19056641 15.39203125 2.19056641 15.39203125 0.5 15.25 C-1.15322266 15.11078125 -1.15322266 15.11078125 -2.83984375 14.96875 C-5.75456398 14.73456875 -8.21448205 14.92205432 -11.125 15.25 C-11.95128906 15.3428125 -12.77757812 15.435625 -13.62890625 15.53125 C-14.26699219 15.6034375 -14.90507812 15.675625 -15.5625 15.75 C-16.34166092 20.77125926 -16.69266601 24.72703996 -15.5625 29.75 C-16.5525 29.75 -17.5425 29.75 -18.5625 29.75 C-20.21910107 24.57312167 -20.0483017 18.95030594 -18.5625 13.75 C-17.9025 13.09 -17.2425 12.43 -16.5625 11.75 C-17.01625 11.29625 -17.47 10.8425 -17.9375 10.375 C-19.14583333 9.16666667 -20.35416667 7.95833333 -21.5625 6.75 C-24.19826683 6.75 -27.04763411 8.01840265 -29.5625 8.75 C-27.7472765 3.66737421 -23.59852345 1.71953497 -18.9375 -0.5 C-12.58504773 -1.91165606 -6.17543395 -2.16681893 0 0 Z " fill="#D43D51" transform="translate(207.5625,15.25)"/>
<path d="M0 0 C0.33 0.99 0.66 1.98 1 3 C2.29355827 4.37195574 3.62298702 5.71182656 5 7 C4.67 7.66 4.34 8.32 4 9 C3.34 9 2.68 9 2 9 C1.79279886 18.05370885 1.79279886 18.05370885 3 27 C1.68 26.67 0.36 26.34 -1 26 C-1.33 26.66 -1.66 27.32 -2 28 C-2.66 28.99 -3.32 29.98 -4 31 C-4.33 31.66 -4.66 32.32 -5 33 C-5.66 33 -6.32 33 -7 33 C-7 32.01 -7 31.02 -7 30 C-8.32 30 -9.64 30 -11 30 C-11 29.34 -11 28.68 -11 28 C-11.99 27.67 -12.98 27.34 -14 27 C-14 25.68 -14 24.36 -14 23 C-14.66 22.67 -15.32 22.34 -16 22 C-13.86163522 7.86163522 -13.86163522 7.86163522 -9.25 3.25 C-6.28728206 1.60404559 -3.27649208 0.81912302 0 0 Z " fill="#D52E44" transform="translate(187,20)"/>
<path d="M0 0 C2.6875 -0.375 2.6875 -0.375 6 0 C9.52640222 3.36967324 11.56634449 6.08523756 12 11 C12.66 10.67 13.32 10.34 14 10 C14.08243693 11.37394884 14.1398309 12.74940598 14.1875 14.125 C14.23970703 15.27355469 14.23970703 15.27355469 14.29296875 16.4453125 C14 19 14 19 11 25 C2.42 25 -6.16 25 -15 25 C-15.33 25.99 -15.66 26.98 -16 28 C-15.40049704 24.31733897 -14.75241109 20.65456815 -14 17 C-14.66 16.67 -15.32 16.34 -16 16 C-11.05 16 -6.1 16 -1 16 C-1 14.02 -1 12.04 -1 10 C-1 9.01 -1 8.02 -1 7 C-0.34 7 0.32 7 1 7 C0.67 4.69 0.34 2.38 0 0 Z " fill="#D1293F" transform="translate(152,18)"/>
<path d="M0 0 C3.41418221 3.64179435 3.29865652 7.27494761 3.203125 12.01171875 C3 14 3 14 2 16 C-0.02543556 16.25719817 -2.05350224 16.50842122 -4.08984375 16.65625 C-6.23522156 16.85476212 -6.23522156 16.85476212 -8 19 C-10.52166109 19.1723963 -12.91953713 19.23250592 -15.4375 19.1875 C-16.11876953 19.18685547 -16.80003906 19.18621094 -17.50195312 19.18554688 C-20.59597947 19.15827338 -23.04530673 18.98489776 -26 18 C-26 17.01 -26 16.02 -26 15 C-26.66 14.67 -27.32 14.34 -28 14 C-24.34827367 11.73150334 -20.9872882 11.6104049 -16.75 11.375 C-15.48671875 11.30023438 -14.2234375 11.22546875 -12.921875 11.1484375 C-11.47554687 11.07496094 -11.47554687 11.07496094 -10 11 C-9.87882812 10.21753906 -9.75765625 9.43507813 -9.6328125 8.62890625 C-9.46523437 7.61699219 -9.29765625 6.60507812 -9.125 5.5625 C-8.96257812 4.55316406 -8.80015625 3.54382813 -8.6328125 2.50390625 C-8.42398438 1.67761719 -8.21515625 0.85132812 -8 0 C-5.00422405 -1.49788797 -3.16806651 -0.90516186 0 0 Z " fill="#D31F37" transform="translate(78,23)"/>
<path d="M0 0 C1.08215681 3.34484831 1.08274916 4.78223907 -0.1875 8.125 C-2.44013394 11.6981435 -4.38710981 13.49500563 -8.4453125 14.765625 C-17.5871953 16.41809361 -25.68718746 16.48891877 -34 12 C-36.4375 9.8125 -36.4375 9.8125 -38 8 C-35.36 8.66 -32.72 9.32 -30 10 C-30 10.66 -30 11.32 -30 12 C-24.06 11.505 -24.06 11.505 -18 11 C-17.67 9.68 -17.34 8.36 -17 7 C-15.35 6.34 -13.7 5.68 -12 5 C-15.63 4.34 -19.26 3.68 -23 3 C-23 2.67 -23 2.34 -23 2 C-21.82244141 2.03480469 -21.82244141 2.03480469 -20.62109375 2.0703125 C-13.42053939 2.194003 -6.94194169 0 0 0 Z " fill="#D2354A" transform="translate(79,47)"/>
<path d="M0 0 C0.50402344 0.16757812 1.00804687 0.33515625 1.52734375 0.5078125 C5.5249462 1.30354379 9.54144402 0.96413574 13.59960938 0.78515625 C18.53375663 0.67735959 18.53375663 0.67735959 20.953125 2.3515625 C22 4 22 4 22.1875 6.5 C21 9 21 9 17.625 10.8125 C11.60484175 12.7107481 4.81926637 13.37964099 -0.9375 10.5625 C-1.618125 10.046875 -2.29875 9.53125 -3 9 C-5.19130534 8.30420546 -5.19130534 8.30420546 -7 8 C-6.67 6.68 -6.34 5.36 -6 4 C-4.35 3.67 -2.7 3.34 -1 3 C-0.67 2.01 -0.34 1.02 0 0 Z " fill="#CF233B" transform="translate(237,50)"/>
<path d="M0 0 C0.763125 0.20625 1.52625 0.4125 2.3125 0.625 C2.3125 1.285 2.3125 1.945 2.3125 2.625 C4.6225 2.625 6.9325 2.625 9.3125 2.625 C10.24673645 5.63531744 10.35699911 6.49150268 9.3125 9.625 C9.59854898 11.30042976 9.93031233 12.96885343 10.3125 14.625 C10.3125 15.285 10.3125 15.945 10.3125 16.625 C6.38392246 18.47631483 3.32474888 18.84504943 -1 18.75 C-2.06863281 18.73195313 -3.13726562 18.71390625 -4.23828125 18.6953125 C-5.04652344 18.67210938 -5.85476563 18.64890625 -6.6875 18.625 C-8.51472775 14.37360158 -9.10415567 11.29154354 -8.6875 6.625 C-6.79114686 2.56138614 -4.93277984 -0.68829486 0 0 Z M-4.6875 6.625 C-4.89720559 10.76593698 -4.89720559 10.76593698 -3.6875 14.625 C0.48188808 14.95967338 0.48188808 14.95967338 4.25 13.4375 C5.58099034 11.58379731 5.58099034 11.58379731 5 8.9375 C4.6596875 7.7928125 4.6596875 7.7928125 4.3125 6.625 C0.83426885 5.46558962 -1.14645578 5.91679116 -4.6875 6.625 Z " fill="#BFBFBF" transform="translate(289.6875,74.375)"/>
<path d="M0 0 C1.81177734 0.00580078 1.81177734 0.00580078 3.66015625 0.01171875 C6.68651074 0.28946523 8.39726855 0.72247982 10.9375 2.3125 C10.9375 2.9725 10.9375 3.6325 10.9375 4.3125 C11.9275 4.3125 12.9175 4.3125 13.9375 4.3125 C13.628125 4.89 13.31875 5.4675 13 6.0625 C12.01166636 8.15544184 11.4206387 10.05785275 10.9375 12.3125 C4.04098527 11.5167483 0.67082752 10.38392235 -4.0625 5.3125 C-4.0625 5.9725 -4.0625 6.6325 -4.0625 7.3125 C-6.7025 7.6425 -9.3425 7.9725 -12.0625 8.3125 C-12.375 6 -12.375 6 -12.0625 3.3125 C-8.11793927 0.18354393 -4.94306043 -0.06872704 0 0 Z " fill="#D31F38" transform="translate(244.0625,14.6875)"/>
<path d="M0 0 C4.62193458 4.01051274 6.76929436 7.95835413 8 14 C8.20625 14.969375 8.4125 15.93875 8.625 16.9375 C8.74875 17.618125 8.8725 18.29875 9 19 C8.34 19 7.68 19 7 19 C7.020625 19.78375 7.04125 20.5675 7.0625 21.375 C7 24 7 24 6 26 C2.04 26 -1.92 26 -6 26 C-5.01 24.68 -4.02 23.36 -3 22 C-0.3125 21.75 -0.3125 21.75 2 22 C2.33 21.34 2.66 20.68 3 20 C3 20.66 3 21.32 3 22 C3.66 22 4.32 22 5 22 C5.05449838 20.27119018 5.09301688 18.54187288 5.125 16.8125 C5.14820313 15.84957031 5.17140625 14.88664062 5.1953125 13.89453125 C4.9913544 10.87187222 4.26874632 8.73230015 3 6 C1.906875 5.855625 0.81375 5.71125 -0.3125 5.5625 C-4 5 -4 5 -7 4 C-7 3.01 -7 2.02 -7 1 C-9.296537 -0.1482685 -10.58313167 -0.11561175 -13.1328125 -0.09765625 C-13.93847656 -0.09443359 -14.74414062 -0.09121094 -15.57421875 -0.08789062 C-16.83685547 -0.07532227 -16.83685547 -0.07532227 -18.125 -0.0625 C-19.39923828 -0.05573242 -19.39923828 -0.05573242 -20.69921875 -0.04882812 C-22.79950909 -0.03702874 -24.8997633 -0.01909306 -27 0 C-27.25523438 0.61359375 -27.51046875 1.2271875 -27.7734375 1.859375 C-29.73449049 5.28184964 -32.54672542 6.20941318 -36 8 C-34.5968277 4.66565758 -33.03010195 2.94473521 -30.125 0.8125 C-29.44695313 0.30332031 -28.76890625 -0.20585937 -28.0703125 -0.73046875 C-20.70653953 -5.24598991 -7.20435822 -4.74147297 0 0 Z " fill="#D45F72" transform="translate(75,17)"/>
<path d="M0 0 C0 0.66 0 1.32 0 2 C0.66 2.33 1.32 2.66 2 3 C2 3.66 2 4.32 2 5 C1.67 5.33 1.34 5.66 1 6 C1 6.99 1 7.98 1 9 C1 9.33 1 9.66 1 10 C5.29 10.33 9.58 10.66 14 11 C15 16 15 16 15 19 C14.34 19.99 13.68 20.98 13 22 C13.66 22.33 14.32 22.66 15 23 C13.35 23 11.7 23 10 23 C10.66 19.7 11.32 16.4 12 13 C11.07316406 13.08378906 10.14632813 13.16757812 9.19140625 13.25390625 C7.99386719 13.35574219 6.79632812 13.45757812 5.5625 13.5625 C3.77005859 13.71912109 3.77005859 13.71912109 1.94140625 13.87890625 C0.97074219 13.91886719 0.00007813 13.95882813 -1 14 C-2 13 -2 13 -2.09765625 10.49609375 C-2.08605469 9.48675781 -2.07445312 8.47742188 -2.0625 7.4375 C-2.05347656 6.42558594 -2.04445313 5.41367188 -2.03515625 4.37109375 C-2.02355469 3.58863281 -2.01195312 2.80617188 -2 2 C-2.680625 2.45375 -3.36125 2.9075 -4.0625 3.375 C-7.30435186 5.16836486 -10.4203441 6.08753869 -14 7 C-15.1707449 11.2141976 -15.22675604 15.35507655 -15.31640625 19.703125 C-15.33718735 20.54091492 -15.35796844 21.37870483 -15.37937927 22.24188232 C-15.4446255 24.91117356 -15.50364358 27.58056098 -15.5625 30.25 C-15.60570894 32.06250984 -15.64932399 33.87501005 -15.69335938 35.6875 C-15.80028129 40.12490209 -15.90161866 44.56240068 -16 49 C-16.33 49 -16.66 49 -17 49 C-17 35.14 -17 21.28 -17 7 C-16.34 7 -15.68 7 -15 7 C-14.67 6.01 -14.34 5.02 -14 4 C-9.11048764 0.57734135 -6.10575128 -0.49842868 0 0 Z " fill="#D06D7C" transform="translate(17,3)"/>
<path d="M0 0 C0.66 0 1.32 0 2 0 C2.93063811 12.01960556 3.12346489 23.94965688 3.0625 36 C3.05746748 37.7578112 3.05290771 39.51562383 3.04882812 41.2734375 C3.03797851 45.51566106 3.02081386 49.75781411 3 54 C4.485 53.505 4.485 53.505 6 53 C6.33 54.32 6.66 55.64 7 57 C13.72222287 59.657623 19.92155682 58.78767638 27 58 C27 58.66 27 59.32 27 60 C19.75223664 62.89910534 13.24817307 62.75430577 6 60 C5.34 59.01 4.68 58.02 4 57 C3.01 56.67 2.02 56.34 1 56 C0.83126522 54.56274129 0.66509263 53.12518162 0.5 51.6875 C0.4071875 50.88699219 0.314375 50.08648437 0.21875 49.26171875 C-0.26959332 44.21259767 0 39.07089795 0 34 C-0.185625 33.34 -0.37125 32.68 -0.5625 32 C-1 30 -1 30 0 27 C0.09599519 24.46742101 0.13937035 21.96907608 0.125 19.4375 C0.12886719 18.75236328 0.13273437 18.06722656 0.13671875 17.36132812 C0.18722618 13.55437812 0.18722618 13.55437812 -1 10 C-0.34 10 0.32 10 1 10 C0.67 6.7 0.34 3.4 0 0 Z " fill="#D18590" transform="translate(272,0)"/>
<path d="M0 0 C0 0.66 0 1.32 0 2 C-11.88 2.99 -11.88 2.99 -24 4 C-23.01 5.485 -23.01 5.485 -22 7 C-19.37302936 7.22137393 -16.99106036 7.28162025 -14.375 7.1875 C-13.66859375 7.17396484 -12.9621875 7.16042969 -12.234375 7.14648438 C-10.48925872 7.1111104 -8.74453392 7.05730221 -7 7 C-7 6.67 -7 6.34 -7 6 C-4.03 6 -1.06 6 2 6 C2.48512072 13.1555306 2.48512072 13.1555306 0.3125 16.9375 C-2.21195277 19.18903896 -3.67042093 19.72253508 -7 20 C-6.34 19.62875 -5.68 19.2575 -5 18.875 C-2.63898553 17.10092939 -2.63898553 17.10092939 -2.875 13.8828125 C-2.91625 12.93148437 -2.9575 11.98015625 -3 11 C-4.22976563 11.02320313 -5.45953125 11.04640625 -6.7265625 11.0703125 C-8.3593689 11.08908039 -9.9921819 11.10727949 -11.625 11.125 C-12.43324219 11.14175781 -13.24148437 11.15851562 -14.07421875 11.17578125 C-18.80093815 11.21420986 -22.55387702 10.82737094 -27 9 C-26.67 6.69 -26.34 4.38 -26 2 C-22.04177873 1.66532692 -18.08340536 1.33248808 -14.125 1 C-12.99707031 0.90460937 -11.86914062 0.80921875 -10.70703125 0.7109375 C-9.09248047 0.57558594 -9.09248047 0.57558594 -7.4453125 0.4375 C-6.45031738 0.35371094 -5.45532227 0.26992188 -4.43017578 0.18359375 C-2 0 -2 0 0 0 Z " fill="#E18F9B" transform="translate(261,41)"/>
<path d="M0 0 C1.65 0 3.3 0 5 0 C5 4.66666667 5 9.33333333 5 14 C6.32 14.66 7.64 15.32 9 16 C11.70582788 12.16674383 12.32613618 9.67461851 12 5 C12.66 5 13.32 5 14 5 C14 9.95 14 14.9 14 20 C14.66 20.33 15.32 20.66 16 21 C14.86111328 20.98259766 14.86111328 20.98259766 13.69921875 20.96484375 C12.70535156 20.95582031 11.71148437 20.94679688 10.6875 20.9375 C9.70136719 20.92589844 8.71523437 20.91429688 7.69921875 20.90234375 C4.90036151 20.87670138 4.90036151 20.87670138 2 22 C0.11294867 20.11294867 0.60532282 16.90566156 0.4375 14.375 C0.35371094 13.16585937 0.26992187 11.95671875 0.18359375 10.7109375 C0.0065929 7.13326064 -0.03222282 3.58133677 0 0 Z " fill="#E0E0E0" transform="translate(210,72)"/>
<path d="M0 0 C0 0.33 0 0.66 0 1 C-5.94 1.495 -5.94 1.495 -12 2 C-12.0960058 4.99755541 -12.0960058 4.99755541 -11.4375 7.875 C-11.00108217 10.99227023 -11.36129052 12.96612997 -12 16 C-11.63143136 18.23167185 -11.63143136 18.23167185 -11 20 C-6.91556885 21.53166168 -3.20544343 20.63081652 1 20 C1.05447047 21.41623216 1.09300508 22.83308191 1.125 24.25 C1.14820312 25.03890625 1.17140625 25.8278125 1.1953125 26.640625 C0.97198192 29.33845836 0.57511491 30.79295277 -1 33 C-4.90631072 35.20640641 -8.39264123 35.21429008 -12.8125 35.125 C-13.97394531 35.10695312 -15.13539062 35.08890625 -16.33203125 35.0703125 C-17.21246094 35.04710937 -18.09289063 35.02390625 -19 35 C-19 34.67 -19 34.34 -19 34 C-18.26394531 33.93941406 -17.52789062 33.87882812 -16.76953125 33.81640625 C-15.79371094 33.73261719 -14.81789063 33.64882813 -13.8125 33.5625 C-12.84957031 33.48128906 -11.88664062 33.40007813 -10.89453125 33.31640625 C-8.21350398 33.02333849 -5.6337014 32.57296246 -3 32 C-3.020625 31.05125 -3.04125 30.1025 -3.0625 29.125 C-3 26 -3 26 -2 24 C-3.27875 24.020625 -4.5575 24.04125 -5.875 24.0625 C-9.75 24.125 -9.75 24.125 -12 23 C-12 22.34 -12 21.68 -12 21 C-12.99 21 -13.98 21 -15 21 C-14.67 14.07 -14.34 7.14 -14 0 C-3.875 -1.125 -3.875 -1.125 0 0 Z " fill="#D46D7E" transform="translate(30,27)"/>
<path d="M0 0 C5.42961394 0.63877811 9.32850786 2.9826819 12.8125 7.1875 C15.56676247 13.71075321 15.37660874 19.42937583 13 26 C12.01 25.67 11.02 25.34 10 25 C10.33 24.67 10.66 24.34 11 24 C11.13568319 20.33655389 11.16461426 17.49384279 10 14 C8.35 14 6.7 14 5 14 C4.67 14.66 4.34 15.32 4 16 C3.34 15.01 2.68 14.02 2 13 C3.53604696 9.85808576 5.05731159 6.91403262 7 4 C6.01 4 5.02 4 4 4 C4 3.34 4 2.68 4 2 C2.35 2 0.7 2 -1 2 C-0.67 1.34 -0.34 0.68 0 0 Z " fill="#D34054" transform="translate(251,15)"/>
<path d="M0 0 C1.61648437 0.57041016 1.61648437 0.57041016 3.265625 1.15234375 C4.08546875 1.45269531 4.9053125 1.75304688 5.75 2.0625 C4.9375 4.5 4.9375 4.5 3.75 7.0625 C0.86788698 8.02320434 -0.94850044 8.16831883 -3.9375 8.125 C-5.14986328 8.11146484 -5.14986328 8.11146484 -6.38671875 8.09765625 C-7.30904297 8.08025391 -7.30904297 8.08025391 -8.25 8.0625 C-8.25 7.4025 -8.25 6.7425 -8.25 6.0625 C-8.86875 5.753125 -9.4875 5.44375 -10.125 5.125 C-11.5 4.4375 -12.875 3.75 -14.25 3.0625 C-13.92 2.0725 -13.59 1.0825 -13.25 0.0625 C-12.26 0.3925 -11.27 0.7225 -10.25 1.0625 C-10.25 0.4025 -10.25 -0.2575 -10.25 -0.9375 C-6.36764181 -2.43578872 -3.81550712 -1.36860582 0 0 Z " fill="#D41F38" transform="translate(57.25,50.9375)"/>
<path d="M0 0 C2 2 2 2 2.08984375 4.49609375 C1.9884087 6.45457047 1.8842487 8.41290799 1.77734375 10.37109375 C1.78081475 13.0097502 1.78081475 13.0097502 3.2734375 14.8359375 C6.04431757 16.70408741 8.76467982 16.18313133 12 16 C13.19708724 20.9080577 13.05852862 24.3459353 11 29 C6.67875531 31.3663959 1.84803155 31.64206176 -3 31 C-5.48760361 30.18647368 -7.6480012 29.1759994 -10 28 C-6.59598052 26.86267574 -4.22543336 27.16010043 -0.75 27.9375 C0.14203125 28.13214844 1.0340625 28.32679687 1.953125 28.52734375 C2.62859375 28.68332031 3.3040625 28.83929688 4 29 C4 28.34 4 27.68 4 27 C5.65 27 7.3 27 9 27 C9.33 24.36 9.66 21.72 10 19 C8.02 19 6.04 19 4 19 C4 18.34 4 17.68 4 17 C2.68 16.67 1.36 16.34 0 16 C-0.71033431 10.47032059 -1.30267176 5.50016964 0 0 Z " fill="#CE6373" transform="translate(105,31)"/>
<path d="M0 0 C0 0.33 0 0.66 0 1 C3.3 1.33 6.6 1.66 10 2 C9.01 3.32 8.02 4.64 7 6 C4.14708645 6.34791629 2.5745284 6.2872642 0 5 C0.33 5.99 0.66 6.98 1 8 C-3.29 8 -7.58 8 -12 8 C-12.33 9.32 -12.66 10.64 -13 12 C-13.66 11.67 -14.32 11.34 -15 11 C-14.67 10.34 -14.34 9.68 -14 9 C-14.33 8.67 -14.66 8.34 -15 8 C-15.68268138 6.67479497 -16.3507041 5.34187818 -17 4 C-15.865625 3.71125 -14.73125 3.4225 -13.5625 3.125 C-12.386875 2.75375 -11.21125 2.3825 -10 2 C-9.67 1.34 -9.34 0.68 -9 0 C-5.75266665 -1.2757381 -3.32967418 -0.83241855 0 0 Z M1 3 C1 3.33 1 3.66 1 4 C2.65 4 4.3 4 6 4 C6 3.67 6 3.34 6 3 C4.35 3 2.7 3 1 3 Z M-9 6 C-9 6.33 -9 6.66 -9 7 C-6.03 7 -3.06 7 0 7 C0 6.67 0 6.34 0 6 C-2.97 6 -5.94 6 -9 6 Z " fill="#CECECE" transform="translate(261,75)"/>
<path d="M0 0 C0.90105469 0.11988281 1.80210937 0.23976563 2.73046875 0.36328125 C3.41753906 0.47027344 4.10460937 0.57726562 4.8125 0.6875 C5.1425 2.6675 5.4725 4.6475 5.8125 6.6875 C6.1425 6.3575 6.4725 6.0275 6.8125 5.6875 C9.14547433 5.64657063 11.47955225 5.64508277 13.8125 5.6875 C12.8225 6.6775 11.8325 7.6675 10.8125 8.6875 C11.8025 10.1725 11.8025 10.1725 12.8125 11.6875 C10.1725 11.6875 7.5325 11.6875 4.8125 11.6875 C4.8125 13.3375 4.8125 14.9875 4.8125 16.6875 C4.1525 17.0175 3.4925 17.3475 2.8125 17.6875 C2.8125 12.7375 2.8125 7.7875 2.8125 2.6875 C1.4925 2.6875 0.1725 2.6875 -1.1875 2.6875 C-1.5175 3.3475 -1.8475 4.0075 -2.1875 4.6875 C-1.1975 4.6875 -0.2075 4.6875 0.8125 4.6875 C0.8125 5.3475 0.8125 6.0075 0.8125 6.6875 C-1.8275 6.6875 -4.4675 6.6875 -7.1875 6.6875 C-7.875 4.875 -7.875 4.875 -8.1875 2.6875 C-5.81072782 -0.71706555 -3.93004616 -0.56143517 0 0 Z " fill="#F4F4F4" transform="translate(229.1875,69.3125)"/>
<path d="M0 0 C1.32 0.66 2.64 1.32 4 2 C4 2.66 4 3.32 4 4 C4.61875 4.12375 5.2375 4.2475 5.875 4.375 C8 5 8 5 10 7 C10.125 9.625 10.125 9.625 10 12 C10.66 12 11.32 12 12 12 C12 12.66 12 13.32 12 14 C6.03325384 15.32594359 0.07416385 15.0884587 -6 15 C-6.33 13.35 -6.66 11.7 -7 10 C-6.401875 9.835 -5.80375 9.67 -5.1875 9.5 C-1.81472202 7.18723796 -1.1668452 3.80108663 0 0 Z M-1.75 8.375 C-4.21693046 10.67686401 -4.21693046 10.67686401 -4 13 C2.435 12.505 2.435 12.505 9 12 C8.67 10.68 8.34 9.36 8 8 C7.01 8 6.02 8 5 8 C5 7.34 5 6.68 5 6 C0.89894693 5.56425342 0.89894693 5.56425342 -1.75 8.375 Z " fill="#DE8A96" transform="translate(240,20)"/>
<path d="M0 0 C0.33 0.66 0.66 1.32 1 2 C2.32 2 3.64 2 5 2 C5 3.32 5 4.64 5 6 C5.99 5.67 6.98 5.34 8 5 C8.33 6.32 8.66 7.64 9 9 C9.99 9 10.98 9 12 9 C12 9.66 12 10.32 12 11 C14.58340384 11.02703562 17.16652308 11.04685611 19.75 11.0625 C20.47960937 11.07087891 21.20921875 11.07925781 21.9609375 11.08789062 C27.07918207 11.16682409 27.07918207 11.16682409 32 10 C32.33 9.01 32.66 8.02 33 7 C33.66 7 34.32 7 35 7 C35.495 8.485 35.495 8.485 36 10 C30.76490073 14.30026012 25.80138767 14.41256089 19.16796875 14.33984375 C10.56951367 13.41744475 4.5057842 8.32618251 -1 2 C-0.67 1.34 -0.34 0.68 0 0 Z " fill="#D35A6C" transform="translate(175,48)"/>
<path d="M0 0 C5.61 0 11.22 0 17 0 C16.34 1.32 15.68 2.64 15 4 C14.175 3.690625 13.35 3.38125 12.5 3.0625 C8.31914259 1.6852911 8.31914259 1.6852911 1 1 C1.33 18.16 1.66 35.32 2 53 C-0.42001166 50.57998834 -0.26678326 49.94594652 -0.3347168 46.62963867 C-0.35781418 45.7249736 -0.38091156 44.82030853 -0.40470886 43.88822937 C-0.41939713 42.90804337 -0.43408539 41.92785736 -0.44921875 40.91796875 C-0.47095657 39.91163895 -0.4926944 38.90530914 -0.51509094 37.8684845 C-0.55906441 35.73590017 -0.59825123 33.60321265 -0.63305664 31.47045898 C-0.68710888 28.21108467 -0.75734898 24.95236473 -0.83007812 21.69335938 C-0.87075638 19.62241456 -0.9105004 17.55145114 -0.94921875 15.48046875 C-0.96997971 14.50635544 -0.99074066 13.53224213 -1.01213074 12.52861023 C-1.02577164 11.61448868 -1.03941254 10.70036713 -1.0534668 9.75854492 C-1.06741989 8.95849533 -1.08137299 8.15844574 -1.0957489 7.33415222 C-1 5 -1 5 0 0 Z " fill="#FED1D5" transform="translate(89,0)"/>
<path d="M0 0 C1.0899321 3.36888105 1.07069492 4.81023996 -0.1875 8.1875 C-1.99584553 10.99355341 -2.90753562 11.93363297 -6 13 C-6 11.02 -6 9.04 -6 7 C-5.01 7 -4.02 7 -3 7 C-2.67 6.01 -2.34 5.02 -2 4 C-2.59425781 4.09539063 -3.18851563 4.19078125 -3.80078125 4.2890625 C-10.57445553 5.19502827 -16.36139116 4.52713245 -23 3 C-23 2.67 -23 2.34 -23 2 C-21.82244141 2.03480469 -21.82244141 2.03480469 -20.62109375 2.0703125 C-13.42053939 2.194003 -6.94194169 0 0 0 Z " fill="#DF8B97" transform="translate(79,47)"/>
<path d="M0 0 C17.05568351 -0.79948516 17.05568351 -0.79948516 23 4 C26.54071609 7.41585457 28.87723155 10.5699069 29.1328125 15.62890625 C29.13023437 16.59699219 29.12765625 17.56507812 29.125 18.5625 C29.12886719 20.01849609 29.12886719 20.01849609 29.1328125 21.50390625 C29 24 29 24 28 26 C27.34 25.67 26.68 25.34 26 25 C26.33 24.34 26.66 23.68 27 23 C27.33338596 19.54187831 27.33338596 19.54187831 27 16 C25.60411246 14.35405861 25.60411246 14.35405861 24 13 C23.896875 12.195625 23.79375 11.39125 23.6875 10.5625 C23.19429652 7.70962236 23.19429652 7.70962236 20.25 5.8125 C15.28920932 3.0459052 11.37732953 1.7501536 5.6875 1.375 C4.08455078 1.26285156 4.08455078 1.26285156 2.44921875 1.1484375 C1.23685547 1.07496094 1.23685547 1.07496094 0 1 C0 0.67 0 0.34 0 0 Z " fill="#DE8190" transform="translate(138,14)"/>
<path d="M0 0 C2.32378307 3.4856746 2.63078302 5.86476981 3 10 C2 13 2 13 0 15 C-2.68839385 15.26991906 -5.29141936 15.08737357 -8 15 C-8 14.67 -8 14.34 -8 14 C-6.35 13.67 -4.7 13.34 -3 13 C-5.97 12.505 -5.97 12.505 -9 12 C-9 11.67 -9 11.34 -9 11 C-6.69 10.34 -4.38 9.68 -2 9 C-2.18129815 5.56206661 -2.18129815 5.56206661 -3 2 C-4.93597032 0.48705712 -4.93597032 0.48705712 -7 0 C-3.86559131 -1.0448029 -2.97903963 -1.15317663 0 0 Z " fill="#B6B6B6" transform="translate(244,78)"/>
<path d="M0 0 C0.99 0.33 1.98 0.66 3 1 C3 5.33333333 3 9.66666667 3 14 C5.1385485 16.1385485 6.13275314 16.42655063 9 17 C9 17.66 9 18.32 9 19 C6.03 19 3.06 19 0 19 C0 12.73 0 6.46 0 0 Z " fill="#A0A0A0" transform="translate(212,72)"/>
<path d="M0 0 C0.66 0.33 1.32 0.66 2 1 C2 3.31 2 5.62 2 8 C4.97 7.01 7.94 6.02 11 5 C12 9 12 9 11 12 C7.04 12 3.08 12 -1 12 C-1 11.01 -1 10.02 -1 9 C-0.34 9 0.32 9 1 9 C0.835 7.88625 0.67 6.7725 0.5 5.625 C0 2 0 2 0 0 Z " fill="#CBCBCB" transform="translate(284,81)"/>
<path d="M0 0 C0.99 0 1.98 0 3 0 C3 0.66 3 1.32 3 2 C3.99 2 4.98 2 6 2 C6 4 6 4 4.5 5.625 C4.005 6.07875 3.51 6.5325 3 7 C3.99 7 4.98 7 6 7 C6 7.66 6 8.32 6 9 C5.01 9 4.02 9 3 9 C3.33 10.98 3.66 12.96 4 15 C2.68 15 1.36 15 0 15 C0 10.05 0 5.1 0 0 Z " fill="#B7B7B7" transform="translate(224,77)"/>
<path d="M0 0 C0.66 0.33 1.32 0.66 2 1 C2 1.99 2 2.98 2 4 C8.72222287 6.657623 14.92155682 5.78767638 22 5 C22 5.66 22 6.32 22 7 C15.84115163 9.46353935 10.59614622 9.42559774 4.1875 8.375 C1 7 1 7 -0.9375 3.875 C-1.288125 2.92625 -1.63875 1.9775 -2 1 C-1.34 0.67 -0.68 0.34 0 0 Z " fill="#D36F81" transform="translate(277,53)"/>
<path d="M0 0 C0.49230769 7.38461538 0.49230769 7.38461538 -2 10.5 C-2.66 10.995 -3.32 11.49 -4 12 C-4.33 10.68 -4.66 9.36 -5 8 C-4.01 8 -3.02 8 -2 8 C-2 6.68 -2 5.36 -2 4 C-7.28 4 -12.56 4 -18 4 C-18 3.34 -18 2.68 -18 2 C-17.40832031 2.02320313 -16.81664062 2.04640625 -16.20703125 2.0703125 C-10.36363175 2.20376697 -5.62568544 0 0 0 Z " fill="#D87A8A" transform="translate(164,47)"/>
<path d="M0 0 C0.515625 0.680625 1.03125 1.36125 1.5625 2.0625 C0.9025 4.0425 0.2425 6.0225 -0.4375 8.0625 C-5.3875 8.0625 -10.3375 8.0625 -15.4375 8.0625 C-15.1075 7.0725 -14.7775 6.0825 -14.4375 5.0625 C-14.4375 5.7225 -14.4375 6.3825 -14.4375 7.0625 C-8.0025 6.5675 -8.0025 6.5675 -1.4375 6.0625 C-2.0975 4.7425 -2.7575 3.4225 -3.4375 2.0625 C-6.4075 2.0625 -9.3775 2.0625 -12.4375 2.0625 C-8.59688894 -1.77811106 -4.63345898 -3.68300586 0 0 Z " fill="#E18C9B" transform="translate(151.4375,25.9375)"/>
<path d="M0 0 C0.84820312 0.32742187 1.69640625 0.65484375 2.5703125 0.9921875 C6.20190011 2.05932828 9.10336301 2.20197218 12.875 2.125 C14.02742187 2.10695312 15.17984375 2.08890625 16.3671875 2.0703125 C17.23601562 2.04710937 18.10484375 2.02390625 19 2 C19 1.34 19 0.68 19 0 C19.66 0 20.32 0 21 0 C21.92470553 4.71599818 22.22923777 7.67265609 20 12 C19 10 19 10 19 5 C14.38 5 9.76 5 5 5 C5 4.34 5 3.68 5 3 C3.35 2.67 1.7 2.34 0 2 C0 1.34 0 0.68 0 0 Z " fill="#D87281" transform="translate(192,45)"/>
<path d="M0 0 C1.64350079 3.28700157 2.41321669 5.47930015 3 9 C2.34 9 1.68 9 1 9 C1.020625 9.78375 1.04125 10.5675 1.0625 11.375 C1 14 1 14 0 16 C-3.96 16 -7.92 16 -12 16 C-11.01 14.68 -10.02 13.36 -9 12 C-6.3125 11.75 -6.3125 11.75 -4 12 C-3.67 11.34 -3.34 10.68 -3 10 C-3 10.66 -3 11.32 -3 12 C-2.34 12 -1.68 12 -1 12 C-0.67 8.04 -0.34 4.08 0 0 Z " fill="#D45F71" transform="translate(81,27)"/>
<path d="M0 0 C0.99 0.33 1.98 0.66 3 1 C3.33 4.3 3.66 7.6 4 11 C0.04 10.67 -3.92 10.34 -8 10 C-6.68 9.34 -5.36 8.68 -4 8 C-6.31 7.67 -8.62 7.34 -11 7 C-11 6.67 -11 6.34 -11 6 C-7.37 6 -3.74 6 0 6 C0 4.02 0 2.04 0 0 Z " fill="#D5808E" transform="translate(210,20)"/>
<path d="M0 0 C1.32 0.33 2.64 0.66 4 1 C4.02693575 3.12493141 4.04636628 5.24995912 4.0625 7.375 C4.07410156 8.55835937 4.08570313 9.74171875 4.09765625 10.9609375 C4 14 4 14 3 16 C2.01 16 1.02 16 0 16 C0 10.72 0 5.44 0 0 Z " fill="#B2B2B2" transform="translate(276,77)"/>
<path d="M0 0 C2 2 2 2 2.08984375 4.49609375 C1.9884087 6.45457047 1.8842487 8.41290799 1.77734375 10.37109375 C1.78081475 13.0097502 1.78081475 13.0097502 3.2734375 14.8359375 C6.04431757 16.70408741 8.76467982 16.18313133 12 16 C12.84098656 20.01804691 13.05404945 23.01803543 12 27 C11.67 27 11.34 27 11 27 C11 24.03 11 21.06 11 18 C9.9275 18.04125 8.855 18.0825 7.75 18.125 C2.75993641 17.95866455 2.75993641 17.95866455 0 16 C-1.52949464 10.84606656 -1.22858123 5.18734296 0 0 Z " fill="#E49CA5" transform="translate(105,31)"/>
<path d="M0 0 C0 4.95 0 9.9 0 15 C-2.97 14.505 -2.97 14.505 -6 14 C-6 14.66 -6 15.32 -6 16 C-6.99 15.67 -7.98 15.34 -9 15 C-8.34 15 -7.68 15 -7 15 C-7.06960938 14.25234375 -7.13921875 13.5046875 -7.2109375 12.734375 C-7.37639748 9.72457913 -7.4339135 6.98584044 -7 4 C-2.62790698 0 -2.62790698 0 0 0 Z M-6 4 C-6 6.64 -6 9.28 -6 12 C-5.01 12.495 -5.01 12.495 -4 13 C-3.01 12.67 -2.02 12.34 -1 12 C-1 9.36 -1 6.72 -1 4 C-2.65 4 -4.3 4 -6 4 Z " fill="#F7F7F7" transform="translate(276,77)"/>
<path d="M0 0 C0 0.33 0 0.66 0 1 C-5.94 1.495 -5.94 1.495 -12 2 C-12.0960058 4.99755541 -12.0960058 4.99755541 -11.4375 7.875 C-11.00108217 10.99227023 -11.36129052 12.96612997 -12 16 C-11.57049648 19.00652461 -11.19963566 19.80036434 -9 22 C-10.98 21.67 -12.96 21.34 -15 21 C-14.67 14.07 -14.34 7.14 -14 0 C-3.875 -1.125 -3.875 -1.125 0 0 Z " fill="#F5C6CD" transform="translate(30,27)"/>
<path d="M0 0 C1.32 0.66 2.64 1.32 4 2 C4 2.66 4 3.32 4 4 C4.61875 4.12375 5.2375 4.2475 5.875 4.375 C8 5 8 5 10 7 C10.125 9.625 10.125 9.625 10 12 C8.2925002 10.71937515 6.62626404 9.38232443 5 8 C5 7.34 5 6.68 5 6 C4.01 6.66 3.02 7.32 2 8 C0.68 8 -0.64 8 -2 8 C-1.125 2.25 -1.125 2.25 0 0 Z " fill="#D34A5D" transform="translate(240,20)"/>
<path d="M0 0 C0.66 0.33 1.32 0.66 2 1 C1.2733313 2.20970459 1.2733313 2.20970459 0.53198242 3.44384766 C-1.33576291 7.77939802 -1.47449631 11.23692123 -1.51171875 15.8984375 C-1.52966995 16.73339752 -1.54762115 17.56835754 -1.56611633 18.42861938 C-1.61999922 21.07736261 -1.65404361 23.72592794 -1.6875 26.375 C-1.72069259 28.17841005 -1.75518404 29.9817967 -1.79101562 31.78515625 C-1.87571275 36.18997534 -1.94262834 40.5947437 -2 45 C-2.33 45 -2.66 45 -3 45 C-3 31.14 -3 17.28 -3 3 C-2.34 3 -1.68 3 -1 3 C-0.67 2.01 -0.34 1.02 0 0 Z " fill="#EC596C" transform="translate(3,7)"/>
<path d="M0 0 C3.63 0 7.26 0 11 0 C11.33 0.66 11.66 1.32 12 2 C10.7934375 2.4021875 10.7934375 2.4021875 9.5625 2.8125 C8.716875 3.204375 7.87125 3.59625 7 4 C6.67 4.99 6.34 5.98 6 7 C3.69 6.67 1.38 6.34 -1 6 C-0.67 4.02 -0.34 2.04 0 0 Z " fill="#D41F37" transform="translate(138,35)"/>
<path d="M0 0 C1.67542976 0.28604898 3.34385343 0.61781233 5 1 C6 4 6 4 5 7 C-4.41002278 8.33257403 -4.41002278 8.33257403 -9 7 C-5.5647952 4.70986347 -4.014669 4.82157027 0 5 C-0.2784375 4.0409375 -0.2784375 4.0409375 -0.5625 3.0625 C-0.706875 2.381875 -0.85125 1.70125 -1 1 C-0.67 0.67 -0.34 0.34 0 0 Z " fill="#FAFAFA" transform="translate(275,69)"/>
<path d="M0 0 C0.33 0 0.66 0 1 0 C1.185625 1.2065625 1.185625 1.2065625 1.375 2.4375 C1.58125 3.283125 1.7875 4.12875 2 5 C2.66 5.33 3.32 5.66 4 6 C4.66 4.68 5.32 3.36 6 2 C6 2.99 6 3.98 6 5 C6.66 5 7.32 5 8 5 C8.93423645 8.01031744 9.04449911 8.86650268 8 12 C3.6154895 10.66028846 1.3838034 8.94244409 -1 5 C-0.75 2.1875 -0.75 2.1875 0 0 Z " fill="#D34C60" transform="translate(2,49)"/>
<path d="M0 0 C0.99 0 1.98 0 3 0 C6.28184915 3.76804902 6.32478387 7.2511986 6.30078125 12.01171875 C6 14 6 14 4 16 C4.33 13.03 4.66 10.06 5 7 C3.68 7 2.36 7 1 7 C1 7.66 1 8.32 1 9 C0.34 9 -0.32 9 -1 9 C-0.67 6.03 -0.34 3.06 0 0 Z " fill="#C9253C" transform="translate(75,23)"/>
<path d="M0 0 C1.25425781 0.02707031 2.50851563 0.05414063 3.80078125 0.08203125 C4.75339844 0.11683594 5.70601562 0.15164063 6.6875 0.1875 C6.6875 0.5175 6.6875 0.8475 6.6875 1.1875 C0.2525 1.6825 0.2525 1.6825 -6.3125 2.1875 C-6.6425 3.8375 -6.9725 5.4875 -7.3125 7.1875 C-8.9625 7.5175 -10.6125 7.8475 -12.3125 8.1875 C-12.625 5.875 -12.625 5.875 -12.3125 3.1875 C-8.29168034 -0.04134003 -5.04507932 -0.14145082 0 0 Z " fill="#C8253B" transform="translate(244.3125,14.8125)"/>
<path d="M0 0 C-1.485 1.485 -1.485 1.485 -3 3 C-2.01 4.485 -2.01 4.485 -1 6 C-3.64 6 -6.28 6 -9 6 C-9 7.65 -9 9.3 -9 11 C-9.99 11.495 -9.99 11.495 -11 12 C-11.48192771 4.77108434 -11.48192771 4.77108434 -9.4375 1.5 C-6.17971981 -0.50478781 -3.75217167 -0.28862859 0 0 Z " fill="#D5D5D5" transform="translate(243,75)"/>
<path d="M0 0 C1.9375 0.6875 1.9375 0.6875 4 2 C4.33 3.65 4.66 5.3 5 7 C0.71 7 -3.58 7 -8 7 C-8 7.99 -8 8.98 -8 10 C-8.66 10 -9.32 10 -10 10 C-10 8.35 -10 6.7 -10 5 C-5.71 5 -1.42 5 3 5 C2.01 3.35 1.02 1.7 0 0 Z " fill="#777777" transform="translate(259,78)"/>
<path d="M0 0 C0.33 0 0.66 0 1 0 C1.28875 0.94875 1.5775 1.8975 1.875 2.875 C2.76825109 6.05211578 2.76825109 6.05211578 5 8 C5.125 11.125 5.125 11.125 5 14 C4.01 13.67 3.02 13.34 2 13 C1.3125 10.9375 1.3125 10.9375 1 9 C0.01 9 -0.98 9 -2 9 C-2.66 6.69 -3.32 4.38 -4 2 C-2.68 2 -1.36 2 0 2 C0 1.34 0 0.68 0 0 Z " fill="#E39EA9" transform="translate(220,42)"/>
<path d="M0 0 C1.39809472 0.25890643 2.79342142 0.53277461 4.1875 0.8125 C4.96480469 0.96332031 5.74210938 1.11414062 6.54296875 1.26953125 C9 2 9 2 11.34375 3.5625 C14.82435692 5.44612257 17.38302774 5.29767212 21.3125 5.1875 C22.56675781 5.16042969 23.82101563 5.13335937 25.11328125 5.10546875 C26.06589844 5.07066406 27.01851562 5.03585938 28 5 C25.19411938 7.80588062 23.35394546 7.29982542 19.4375 7.3125 C13.30477326 7.24302524 8.64306102 6.33505973 3 4 C3 3.34 3 2.68 3 2 C2.01 1.67 1.02 1.34 0 1 C0 0.67 0 0.34 0 0 Z " fill="#EAB5BE" transform="translate(225,56)"/>
<path d="M0 0 C0.90457555 3.02445872 1.00162382 5.48656681 0.8125 8.625 C0.72204777 13.70540051 2.07993205 17.40914833 4.22265625 21.96875 C4.47917969 22.6390625 4.73570313 23.309375 5 24 C4.67 24.66 4.34 25.32 4 26 C-0.45088276 20.36221517 -2.50094085 14.37726888 -1.671875 7.1328125 C-1.19441472 4.72504851 -0.65422919 2.36529014 0 0 Z " fill="#DE8792" transform="translate(36,29)"/>
<path d="M0 0 C0.66 0.33 1.32 0.66 2 1 C1.3125 2.9375 1.3125 2.9375 0 5 C-0.78375 5.144375 -1.5675 5.28875 -2.375 5.4375 C-5.97441482 6.20880318 -6.84493775 8.12658367 -9 11 C-9.99 11.33 -10.98 11.66 -12 12 C-10.62523555 6.80644539 -7.25658407 3.99572509 -3 1 C-2.01 0.67 -1.02 0.34 0 0 Z " fill="#D87A88" transform="translate(135,15)"/>
<path d="M0 0 C3.3 0 6.6 0 10 0 C10 3.3 10 6.6 10 10 C8.68 10.33 7.36 10.66 6 11 C6 10.34 6 9.68 6 9 C6.66 9 7.32 9 8 9 C8 7.02 8 5.04 8 3 C5.36 2.67 2.72 2.34 0 2 C0 1.34 0 0.68 0 0 Z " fill="#D14B5D" transform="translate(290,48)"/>
<path d="M0 0 C0.66 0 1.32 0 2 0 C2.02505615 0.58491211 2.0501123 1.16982422 2.07592773 1.77246094 C2.19222962 4.43184471 2.31480067 7.09090403 2.4375 9.75 C2.47681641 10.67039062 2.51613281 11.59078125 2.55664062 12.5390625 C2.59853516 13.42851563 2.64042969 14.31796875 2.68359375 15.234375 C2.72025146 16.05131836 2.75690918 16.86826172 2.79467773 17.70996094 C2.99134275 19.9034423 3.40300594 21.88396413 4 24 C3.01 24 2.02 24 1 24 C0.83126522 22.56274129 0.66509263 21.12518162 0.5 19.6875 C0.4071875 18.88699219 0.314375 18.08648437 0.21875 17.26171875 C-0.33290174 11.55803377 0 5.72956053 0 0 Z " fill="#E5B6BC" transform="translate(272,32)"/>
<path d="M0 0 C0.66 0.33 1.32 0.66 2 1 C1.34 2.32 0.68 3.64 0 5 C-0.99 5 -1.98 5 -3 5 C-3.66 6.98 -4.32 8.96 -5 11 C-5.99 11 -6.98 11 -8 11 C-8.33 12.65 -8.66 14.3 -9 16 C-9.66 15.67 -10.32 15.34 -11 15 C-8.19258771 8.60257818 -5.78467036 4.03581653 0 0 Z " fill="#DB818E" transform="translate(229,17)"/>
<path d="M0 0 C5.61 0 11.22 0 17 0 C16.67 0.66 16.34 1.32 16 2 C11.71 2 7.42 2 3 2 C2.67 2.66 2.34 3.32 2 4 C2.99 4 3.98 4 5 4 C5 4.66 5 5.32 5 6 C2.525 5.01 2.525 5.01 0 4 C0 2.68 0 1.36 0 0 Z " fill="#EDAAB4" transform="translate(51,43)"/>
<path d="M0 0 C4.62 0 9.24 0 14 0 C15 5 15 5 15 8 C14.01 9.485 14.01 9.485 13 11 C13.66 11.33 14.32 11.66 15 12 C13.35 12 11.7 12 10 12 C10.99 8.37 11.98 4.74 13 1 C8.71 1 4.42 1 0 1 C0 0.67 0 0.34 0 0 Z " fill="#ECA4B1" transform="translate(17,14)"/>
<path d="M0 0 C0.66 0 1.32 0 2 0 C2.90594807 2.61718331 2.98235878 4.10143704 2.5 6.875 C1.96555333 10.21529171 2.29569414 12.71323933 3 16 C2.01 16 1.02 16 0 16 C-1.69057861 10.71694183 -1.29188056 5.32900731 0 0 Z " fill="#D56375" transform="translate(189,29)"/>
<path d="M0 0 C2.53541298 0.09086451 5.03554784 0.2370945 7.5625 0.4375 C8.62887695 0.51581055 8.62887695 0.51581055 9.71679688 0.59570312 C11.47821999 0.72574107 13.23916173 0.86226897 15 1 C15 1.33 15 1.66 15 2 C9.98391475 3.0176403 5.21391694 3.11856434 0.125 3.0625 C-0.65875 3.05798828 -1.4425 3.05347656 -2.25 3.04882812 C-4.16670014 3.03714093 -6.08336048 3.01920908 -8 3 C-8.33 3.99 -8.66 4.98 -9 6 C-9 4.68 -9 3.36 -9 2 C-6.94921875 1.77213542 -4.8984375 1.54427083 -2.84765625 1.31640625 C-0.98859771 1.18113386 -0.98859771 1.18113386 0 0 Z " fill="#C32E41" transform="translate(145,40)"/>
<path d="M0 0 C1 3 1 3 0 6 C4.29 6 8.58 6 13 6 C13 6.33 13 6.66 13 7 C8.545 7.495 8.545 7.495 4 8 C4 8.33 4 8.66 4 9 C1.69 9.33 -0.62 9.66 -3 10 C-3 9.01 -3 8.02 -3 7 C-2.34 7 -1.68 7 -1 7 C-1.020625 6.030625 -1.04125 5.06125 -1.0625 4.0625 C-1 1 -1 1 0 0 Z " fill="#C2293F" transform="translate(51,28)"/>
<path d="M0 0 C1.9375 0.8125 1.9375 0.8125 4 2 C5.03354508 5.10063523 5.13364996 7.31444068 5.125 10.5625 C5.12757813 11.53316406 5.13015625 12.50382812 5.1328125 13.50390625 C5 16 5 16 4 18 C3.34 17.67 2.68 17.34 2 17 C2.33 16.34 2.66 15.68 3 15 C3.33338596 11.54187831 3.33338596 11.54187831 3 8 C1.54166642 6.37485532 1.54166642 6.37485532 0 5 C-0.1875 2.3125 -0.1875 2.3125 0 0 Z " fill="#DD7687" transform="translate(162,22)"/>
<path d="M0 0 C0.66 0.33 1.32 0.66 2 1 C1.34 1.66 0.68 2.32 0 3 C-0.24253813 5.21072977 -0.24253813 5.21072977 -0.125 7.625 C-0.10695313 8.44226563 -0.08890625 9.25953125 -0.0703125 10.1015625 C-0.04710937 10.72804688 -0.02390625 11.35453125 0 12 C-1.32 11.34 -2.64 10.68 -4 10 C-4.25 6.6875 -4.25 6.6875 -4 3 C-2 1.0625 -2 1.0625 0 0 Z " fill="#8B8B8B" transform="translate(285,78)"/>
<path d="M0 0 C0.66 0.28875 1.32 0.5775 2 0.875 C2 1.205 2 1.535 2 1.875 C0.02 1.875 -1.96 1.875 -4 1.875 C-4.185625 2.4525 -4.37125 3.03 -4.5625 3.625 C-6.70551122 6.97927843 -9.48822563 8.05407996 -13 9.875 C-10.76205509 4.60722198 -5.95496099 -0.24812337 0 0 Z " fill="#D97D8B" transform="translate(52,15.125)"/>
<path d="M0 0 C2.12015392 3.84488231 2.30976503 6.58584834 2 11 C1 13.9375 1 13.9375 0 16 C-0.99 15.67 -1.98 15.34 -3 15 C-2.67 14.67 -2.34 14.34 -2 14 C-1.602507 11.65276034 -1.25631277 9.29671452 -0.9375 6.9375 C-0.67259766 5.00197266 -0.67259766 5.00197266 -0.40234375 3.02734375 C-0.26957031 2.02832031 -0.13679688 1.02929688 0 0 Z " fill="#DB919C" transform="translate(264,25)"/>
<path d="M0 0 C-0.33 0.99 -0.66 1.98 -1 3 C-1.721875 2.79375 -2.44375 2.5875 -3.1875 2.375 C-6.49414186 1.93411442 -8.0626192 2.49161526 -11 4 C-11.66 4.66 -12.32 5.32 -13 6 C-13.33 4.35 -13.66 2.7 -14 1 C-9.27685687 0.22887459 -4.78478822 -0.09764874 0 0 Z " fill="#E2939F" transform="translate(65,25)"/>
<path d="M0 0 C0.62402869 8.26838016 0.62402869 8.26838016 -1.8125 11.125 C-4 12 -4 12 -7 11 C-5.68 10.34 -4.36 9.68 -3 9 C-3 7.02 -3 5.04 -3 3 C-3.66 2.67 -4.32 2.34 -5 2 C-1.125 0 -1.125 0 0 0 Z " fill="#DC6677" transform="translate(261,49)"/>
<path d="M0 0 C0.66 0 1.32 0 2 0 C1.6875 1.875 1.6875 1.875 1 4 C-2.7367843 6.49118953 -4.74451819 6.2065226 -9.1875 6.125 C-10.45980469 6.10695313 -11.73210937 6.08890625 -13.04296875 6.0703125 C-14.50669922 6.03550781 -14.50669922 6.03550781 -16 6 C-16 5.67 -16 5.34 -16 5 C-12.37 5 -8.74 5 -5 5 C-5 4.34 -5 3.68 -5 3 C-3.35 3 -1.7 3 0 3 C0 2.01 0 1.02 0 0 Z " fill="#C4283E" transform="translate(261,36)"/>
<path d="M0 0 C5.28 0 10.56 0 16 0 C15.34 1.32 14.68 2.64 14 4 C13.175 3.690625 12.35 3.38125 11.5 3.0625 C7.60873845 1.88122417 4.03833047 1.41775832 0 1 C0 0.67 0 0.34 0 0 Z " fill="#E58B98" transform="translate(90,0)"/>
<path d="M0 0 C0 0.66 0 1.32 0 2 C0.99 2 1.98 2 3 2 C3 2.66 3 3.32 3 4 C0.36 4 -2.28 4 -5 4 C-5.33 2.68 -5.66 1.36 -6 0 C-3 -1 -3 -1 0 0 Z " fill="#D5D5D5" transform="translate(227,72)"/>
<path d="M0 0 C0.66 0.33 1.32 0.66 2 1 C1.67 2.65 1.34 4.3 1 6 C-3.95 6 -8.9 6 -14 6 C-13.67 5.01 -13.34 4.02 -13 3 C-13 3.66 -13 4.32 -13 5 C-6.565 4.505 -6.565 4.505 0 4 C-0.33 3.01 -0.66 2.02 -1 1 C-0.67 0.67 -0.34 0.34 0 0 Z " fill="#F3BEC4" transform="translate(150,28)"/>
<path d="M0 0 C0.66 0.33 1.32 0.66 2 1 C2 1.66 2 2.32 2 3 C4.31 3 6.62 3 9 3 C8.67 3.66 8.34 4.32 8 5 C5.49609375 5.4140625 5.49609375 5.4140625 2.4375 5.625 C1.42558594 5.69976562 0.41367188 5.77453125 -0.62890625 5.8515625 C-1.41136719 5.90054688 -2.19382813 5.94953125 -3 6 C-2.34 5.67 -1.68 5.34 -1 5 C-0.34444881 2.47266765 -0.34444881 2.47266765 0 0 Z " fill="#A5A5A5" transform="translate(233,87)"/>
<path d="M0 0 C1.58158962 3.00887781 2.43945339 5.63672037 3 9 C2.34 9 1.68 9 1 9 C1.020625 9.78375 1.04125 10.5675 1.0625 11.375 C1 14 1 14 0 16 C-0.99 15.67 -1.98 15.34 -3 15 C-2.690625 14.38125 -2.38125 13.7625 -2.0625 13.125 C-0.5960722 8.81197706 -0.33380974 4.5240004 0 0 Z " fill="#FCD9E1" transform="translate(81,27)"/>
<path d="M0 0 C-0.474375 0.37125 -0.94875 0.7425 -1.4375 1.125 C-3.52205802 3.62646962 -3.64621491 5.81593418 -4 9 C-4.99 8.67 -5.98 8.34 -7 8 C-6.67 7.34 -6.34 6.68 -6 6 C-6.33 5.67 -6.66 5.34 -7 5 C-7.68268138 3.67479497 -8.3507041 2.34187818 -9 1 C-2.25 -1.125 -2.25 -1.125 0 0 Z " fill="#EDEDED" transform="translate(253,78)"/>
<path d="M0 0 C1.9375 0.8125 1.9375 0.8125 4 2 C5 5 5 5 4 8 C3.34 8 2.68 8 2 8 C2 7.34 2 6.68 2 6 C1.34 6 0.68 6 0 6 C-0.38218767 4.34385343 -0.71395102 2.67542976 -1 1 C-0.67 0.67 -0.34 0.34 0 0 Z " fill="#CC253E" transform="translate(250,26)"/>
<path d="M0 0 C0.99 0 1.98 0 3 0 C3.33 2.97 3.66 5.94 4 9 C2 7.875 2 7.875 0 6 C-0.25 2.8125 -0.25 2.8125 0 0 Z " fill="#D23C56" transform="translate(91,49)"/>
<path d="M0 0 C0.33 0.66 0.66 1.32 1 2 C-3.07723734 3.95031692 -6.31692422 4.21581971 -10.8125 4.125 C-11.97394531 4.10695313 -13.13539062 4.08890625 -14.33203125 4.0703125 C-15.21246094 4.04710937 -16.09289063 4.02390625 -17 4 C-17 3.67 -17 3.34 -17 3 C-16.27554687 2.95101562 -15.55109375 2.90203125 -14.8046875 2.8515625 C-9.58541133 2.44793848 -4.90186342 1.98724193 0 0 Z " fill="#E38E9B" transform="translate(28,58)"/>
<path d="M0 0 C0.66 0 1.32 0 2 0 C2.92470553 4.71599818 3.22923777 7.67265609 1 12 C-0.53445094 8.93109813 0.45015711 6.29905734 1 3 C-0.98 3 -2.96 3 -5 3 C-5 2.67 -5 2.34 -5 2 C-3.35 2 -1.7 2 0 2 C0 1.34 0 0.68 0 0 Z " fill="#E6BBC2" transform="translate(211,45)"/>
<path d="M0 0 C1.67542976 0.28604898 3.34385343 0.61781233 5 1 C5.33 1.99 5.66 2.98 6 4 C4.02 4.33 2.04 4.66 0 5 C-0.5625 3.0625 -0.5625 3.0625 -1 1 C-0.67 0.67 -0.34 0.34 0 0 Z " fill="#CDCDCD" transform="translate(275,69)"/>
<path d="M0 0 C7.63076923 1.47692308 7.63076923 1.47692308 9.5 4.125 C9.665 4.74375 9.83 5.3625 10 6 C5.16743695 5.58578031 3.17320782 3.53586014 0 0 Z " fill="#D87884" transform="translate(41,55)"/>
<path d="M0 0 C2.97 0 5.94 0 9 0 C10.88343932 3.76687864 11.22057835 5.02958963 11 9 C9 5.25 9 5.25 9 3 C4.545 2.01 4.545 2.01 0 1 C0 0.67 0 0.34 0 0 Z " fill="#D35B6E" transform="translate(277,0)"/>
<path d="M0 0 C0.66 0.33 1.32 0.66 2 1 C2 1.99 2 2.98 2 4 C2.66 4.33 3.32 4.66 4 5 C4.99 6.485 4.99 6.485 6 8 C3.6875 7.875 3.6875 7.875 1 7 C-0.8125 3.9375 -0.8125 3.9375 -2 1 C-1.34 0.67 -0.68 0.34 0 0 Z " fill="#DE7A88" transform="translate(277,53)"/>
<path d="M0 0 C0.99 0.99 1.98 1.98 3 3 C3.33 2.34 3.66 1.68 4 1 C4.66 1.33 5.32 1.66 6 2 C5.67 2.99 5.34 3.98 5 5 C2.69 5.33 0.38 5.66 -2 6 C-1.125 1.125 -1.125 1.125 0 0 Z " fill="#D34558" transform="translate(177,24)"/>
<path d="M0 0 C3.375 -0.125 3.375 -0.125 7 0 C9 2 9 2 9.125 4.625 C9.08375 5.40875 9.0425 6.1925 9 7 C7.2925002 5.71937515 5.62626404 4.38232443 4 3 C4 2.34 4 1.68 4 1 C2.68 0.67 1.36 0.34 0 0 Z " fill="#E69DA7" transform="translate(241,25)"/>
<path d="M0 0 C2.125 0.9375 2.125 0.9375 4 2 C1.3144406 4.6855594 -1.37621328 5.06049974 -5 6 C-2.25 1.125 -2.25 1.125 0 0 Z " fill="#CD485C" transform="translate(8,4)"/>
<path d="M0 0 C2.97 0.495 2.97 0.495 6 1 C5.01 1.495 5.01 1.495 4 2 C4 2.66 4 3.32 4 4 C4.99 4.33 5.98 4.66 7 5 C4.69 5 2.38 5 0 5 C0 3.35 0 1.7 0 0 Z " fill="#CDCDCD" transform="translate(249,88)"/>
<path d="M0 0 C1.32 0 2.64 0 4 0 C4 2.64 4 5.28 4 8 C3.67 8 3.34 8 3 8 C3 6.35 3 4.7 3 3 C0.36 3 -2.28 3 -5 3 C-4.360625 2.690625 -3.72125 2.38125 -3.0625 2.0625 C-1.06389179 1.1654837 -1.06389179 1.1654837 0 0 Z " fill="#E6A0A9" transform="translate(160,47)"/>
<path d="M0 0 C0.66 0.33 1.32 0.66 2 1 C1.67 1.33 1.34 1.66 1 2 C1.66 2.66 2.32 3.32 3 4 C-1.455 5.485 -1.455 5.485 -6 7 C-4.11656068 3.23312136 -3.30867531 2.20578354 0 0 Z " fill="#DA6F7E" transform="translate(184,17)"/>
<path d="M0 0 C1.98 0 3.96 0 6 0 C6.33 1.32 6.66 2.64 7 4 C5.02 4 3.04 4 1 4 C0.67 2.68 0.34 1.36 0 0 Z " fill="#CF2134" transform="translate(152,18)"/>
<path d="M0 0 C0.66 0 1.32 0 2 0 C2.33 0.99 2.66 1.98 3 3 C-0.06117568 5.62386487 -0.73173127 6 -5 6 C-5 5.34 -5 4.68 -5 4 C-4.0409375 3.8453125 -4.0409375 3.8453125 -3.0625 3.6875 C-2.381875 3.460625 -1.70125 3.23375 -1 3 C-0.67 2.01 -0.34 1.02 0 0 Z " fill="#D76F7F" transform="translate(208,55)"/>
<path d="M0 0 C0.99 0 1.98 0 3 0 C4.125 5.75 4.125 5.75 3 8 C1.68 7.67 0.36 7.34 -1 7 C-0.34 6.67 0.32 6.34 1 6 C0.67 4.02 0.34 2.04 0 0 Z " fill="#C42B42" transform="translate(65,26)"/>
<path d="M0 0 C1.32 0.33 2.64 0.66 4 1 C3.67 3.31 3.34 5.62 3 8 C0.55177287 5.04172555 0 3.87455037 0 0 Z " fill="#CB283E" transform="translate(208,49)"/>
<path d="M0 0 C0.66 0 1.32 0 2 0 C3.46726798 3.81489674 2.43336419 6.29011622 1 10 C0.67 10 0.34 10 0 10 C0 6.7 0 3.4 0 0 Z " fill="#E07989" transform="translate(189,29)"/>
<path d="M0 0 C3.53586014 3.17320782 5.58578031 5.16743695 6 10 C2.46413986 6.82679218 0.41421969 4.83256305 0 0 Z " fill="#E598A5" transform="translate(121,46)"/>
<path d="M0 0 C0.66 0.33 1.32 0.66 2 1 C1.25 2.9375 1.25 2.9375 0 5 C-2 5.6875 -2 5.6875 -4 6 C-4.99 6.495 -4.99 6.495 -6 7 C-4.60667426 3.63279613 -3.0210714 2.0140476 0 0 Z " fill="#E18695" transform="translate(229,17)"/>
<path d="M0 0 C0.66 0.33 1.32 0.66 2 1 C1.34 2.32 0.68 3.64 0 5 C-1.65 5 -3.3 5 -5 5 C-4.1875 3.0625 -4.1875 3.0625 -3 1 C-2.01 0.67 -1.02 0.34 0 0 Z " fill="#D6596E" transform="translate(135,15)"/>
<path d="M0 0 C0.66 0.33 1.32 0.66 2 1 C0.02 5.455 0.02 5.455 -2 10 C-2.33 10 -2.66 10 -3 10 C-3 7.69 -3 5.38 -3 3 C-2.34 3 -1.68 3 -1 3 C-0.67 2.01 -0.34 1.02 0 0 Z " fill="#E38B96" transform="translate(3,7)"/>
<path d="M0 0 C0.625 1.8125 0.625 1.8125 1 4 C0.01 5.485 0.01 5.485 -1 7 C-1.66 7 -2.32 7 -3 7 C-2.625 4.0625 -2.625 4.0625 -2 1 C-1.34 0.67 -0.68 0.34 0 0 Z " fill="#C94759" transform="translate(40,24)"/>
<path d="M0 0 C0.66 0 1.32 0 2 0 C2 0.66 2 1.32 2 2 C2.99 2.33 3.98 2.66 5 3 C0.375 5.125 0.375 5.125 -3 4 C-1.625 2 -1.625 2 0 0 Z " fill="#CA243D" transform="translate(180,22)"/>
<path d="M0 0 C0.33 0.66 0.66 1.32 1 2 C2.65 1.67 4.3 1.34 6 1 C6 1.66 6 2.32 6 3 C3.36 3.66 0.72 4.32 -2 5 C-1 1 -1 1 0 0 Z " fill="#C72540" transform="translate(56,22)"/>
<path d="M0 0 C2.31 0 4.62 0 7 0 C7 0.33 7 0.66 7 1 C4.69 1 2.38 1 0 1 C0 0.67 0 0.34 0 0 Z " fill="#FFFFFF" transform="translate(253,87)"/>
<path d="M0 0 C2.31 0 4.62 0 7 0 C7 0.33 7 0.66 7 1 C4.69 1 2.38 1 0 1 C0 0.67 0 0.34 0 0 Z " fill="#FFFFFF" transform="translate(244,45)"/>
<path d="M0 0 C0.99 0.33 1.98 0.66 3 1 C2.01 1.33 1.02 1.66 0 2 C0 1.34 0 0.68 0 0 Z " fill="#FFFFFF" transform="translate(15,0)"/>
<path d="M0 0 C2 1 2 1 2 1 Z " fill="#FFFFFF" transform="translate(272,92)"/>
<path d="M0 0 C2 1 2 1 2 1 Z " fill="#FFFFFF" transform="translate(292,85)"/>
<path d="M0 0 C2 1 2 1 2 1 Z " fill="#FFFFFF" transform="translate(118,47)"/>
<path d="M0 0 C2 1 2 1 2 1 Z " fill="#FFFFFF" transform="translate(261,45)"/>
<path d="" fill="#FFFFFF" transform="translate(0,0)"/>
<path d="M0 0 C2 1 2 1 2 1 Z " fill="#FFFFFF" transform="translate(254,44)"/>
<path d="" fill="#FFFFFF" transform="translate(0,0)"/>
<path d="" fill="#FFFFFF" transform="translate(0,0)"/>
<path d="" fill="#FFFFFF" transform="translate(0,0)"/>
<path d="" fill="#FFFFFF" transform="translate(0,0)"/>
<path d="" fill="#FFFFFF" transform="translate(0,0)"/>
<path d="" fill="#FFFFFF" transform="translate(0,0)"/>
<path d="" fill="#FFFFFF" transform="translate(0,0)"/>
<path d="" fill="#FFFFFF" transform="translate(0,0)"/>
<path d="" fill="#FFFFFF" transform="translate(0,0)"/>
<path d="" fill="#FFFFFF" transform="translate(0,0)"/>
<path d="" fill="#FFFFFF" transform="translate(0,0)"/>
<path d="" fill="#FFFFFF" transform="translate(0,0)"/>
<path d="" fill="#FFFFFF" transform="translate(0,0)"/>
<path d="" fill="#FFFFFF" transform="translate(0,0)"/>
<path d="" fill="#FFFFFF" transform="translate(0,0)"/>
</svg>
